<svg width="360" height="544" viewBox="0 0 360 544" fill="none" xmlns="http://www.w3.org/2000/svg">
<path d="M360 28.6239C360 26.143 359.017 23.7633 357.265 22.0061L338.738 3.4156C335.171 -0.162804 329.411 -0.271702 325.712 3.16935L287.901 38.3437C285.03 41.0141 280.801 41.6162 277.299 39.8532L248.466 25.3366C246.624 24.409 244.527 24.1149 242.5 24.5L198.105 32.9354C196.323 33.2739 194.482 33.0885 192.804 32.4017L141.423 11.3737C138.42 10.145 134.996 10.5557 132.369 12.4596L108.316 29.8951C105.328 32.0609 101.348 32.2724 98.1471 30.4354L55.5372 5.97913C52.7172 4.36052 49.2597 4.31876 46.4014 5.86879L0.00012207 31.0312V517.438L45.8849 533.893C48.1458 534.704 50.6318 534.616 52.8298 533.648L93.7306 515.626C96.6111 514.357 99.9362 514.618 102.583 516.321L142.05 541.714C145.586 543.989 150.205 543.631 153.349 540.838L188.131 509.937C190.837 507.533 194.687 506.902 198.02 508.316L239.784 526.041C242.462 527.178 245.516 527.007 248.05 525.578L274.81 510.496C278.041 508.675 282.043 508.93 285.017 511.147L316.26 534.442C319.878 537.139 324.904 536.876 328.221 533.816L360 504.5V28.6239Z" fill="#FFA2C2"/>
</svg>
