<svg width="360" height="821" viewBox="0 0 360 821" fill="none" xmlns="http://www.w3.org/2000/svg">
<path d="M360 31.6239C360 29.143 359.017 26.7633 357.265 25.0061L338.738 6.4156C335.171 2.8372 329.411 2.7283 325.712 6.16935L287.901 41.3437C285.03 44.0141 280.801 44.6162 277.299 42.8532L248.466 28.3366C246.624 27.409 244.527 27.1149 242.5 27.5L198.105 35.9354C196.323 36.2739 194.482 36.0885 192.804 35.4017L141.423 14.3737C138.42 13.145 134.996 13.5557 132.369 15.4596L108.316 32.8951C105.328 35.0609 101.348 35.2724 98.1471 33.4354L55.5372 8.97913C52.7172 7.36052 49.2597 7.31876 46.4014 8.86879L0.00012207 34.0312V792.438L45.8849 808.893C48.1458 809.704 50.6318 809.616 52.8298 808.648L93.7306 790.626C96.6111 789.357 99.9362 789.618 102.583 791.321L142.05 816.714C145.586 818.989 150.205 818.631 153.349 815.838L188.131 784.937C190.837 782.533 194.687 781.902 198.02 783.316L239.784 801.041C242.462 802.178 245.516 802.007 248.05 800.578L274.81 785.496C278.041 783.675 282.043 783.93 285.017 786.147L316.26 809.442C319.878 812.139 324.904 811.876 328.221 808.816L360 779.5V31.6239Z" fill="#FFA2C2"/>
<circle cx="226.5" cy="736.5" r="10.5" fill="#BEDBFF" fill-opacity="0.7"/>
<circle cx="142.5" cy="574.5" r="10.5" fill="#BEDBFF" fill-opacity="0.7"/>
<circle cx="314.5" cy="565.5" r="10.5" fill="#BEDBFF" fill-opacity="0.7"/>
<circle cx="193.5" cy="654.5" r="10.5" fill="#BEDBFF" fill-opacity="0.7"/>
<circle cx="58.5" cy="757.5" r="10.5" fill="#BEDBFF" fill-opacity="0.7"/>
<circle cx="179.5" cy="469.5" r="10.5" fill="#BEDBFF" fill-opacity="0.7"/>
<circle cx="333.5" cy="226.5" r="10.5" fill="#BEDBFF" fill-opacity="0.7"/>
<circle cx="82.5" cy="410.5" r="10.5" fill="#BEDBFF" fill-opacity="0.7"/>
<circle cx="193.5" cy="277.5" r="10.5" fill="#BEDBFF" fill-opacity="0.7"/>
<circle cx="46.5" cy="229.5" r="10.5" fill="#BEDBFF" fill-opacity="0.7"/>
<circle cx="238.5" cy="399.5" r="10.5" fill="#BEDBFF" fill-opacity="0.7"/>
</svg>
