<svg width="1920" height="1270" viewBox="0 0 1920 1270" fill="none" xmlns="http://www.w3.org/2000/svg">
<path d="M1920 168.661C1920 155.43 1914.76 142.738 1905.42 133.366L1806.6 34.2166C1787.58 15.1318 1756.86 14.5509 1737.13 32.9032L1535.47 220.5C1520.16 234.742 1497.61 237.953 1478.93 228.551L1325.15 151.129C1315.33 146.181 1304.14 144.613 1293.33 146.667L1056.56 191.656C1047.06 193.461 1037.24 192.472 1028.29 188.809L754.253 76.6599C738.241 70.1068 719.978 72.2974 705.97 82.4515L577.685 175.441C561.75 186.992 540.521 188.12 523.451 178.322L296.198 47.8887C281.158 39.2561 262.718 39.0334 247.474 47.3002L0 181.5V1119.5L244.719 1207.26C256.777 1211.59 270.036 1211.12 281.758 1205.96L499.896 1109.84C515.259 1103.07 532.993 1104.46 547.111 1113.55L757.597 1248.97C776.459 1261.11 801.093 1259.2 817.86 1244.3L1003.36 1079.5C1017.8 1066.67 1038.33 1063.31 1056.11 1070.85L1278.85 1165.39C1293.13 1171.45 1309.42 1170.54 1322.93 1162.92L1465.65 1082.48C1482.89 1072.76 1504.23 1074.13 1520.09 1085.95L1686.72 1210.19C1706.02 1224.57 1732.82 1223.17 1750.51 1206.85L1920 1050.5V168.661Z" fill="#FFA2C2"/>
<circle cx="1554" cy="403" r="18" fill="#BEDBFF" fill-opacity="0.7"/>
<circle cx="1842" cy="475" r="18" fill="#BEDBFF" fill-opacity="0.7"/>
<circle cx="1578" cy="859" r="18" fill="#BEDBFF" fill-opacity="0.7"/>
<circle cx="1789" cy="1015" r="18" fill="#BEDBFF" fill-opacity="0.7"/>
<circle cx="1194" cy="1051" r="18" fill="#BEDBFF" fill-opacity="0.7"/>
<circle cx="1182" cy="511" r="18" fill="#BEDBFF" fill-opacity="0.7"/>
<circle cx="884" cy="907" r="18" fill="#BEDBFF" fill-opacity="0.7"/>
<circle cx="798" cy="1123" r="18" fill="#BEDBFF" fill-opacity="0.7"/>
<circle cx="401" cy="1015" r="18" fill="#BEDBFF" fill-opacity="0.7"/>
<circle cx="174" cy="889" r="18" fill="#BEDBFF" fill-opacity="0.7"/>
<circle cx="126" cy="391" r="18" fill="#BEDBFF" fill-opacity="0.7"/>
<circle cx="588" cy="529" r="18" fill="#BEDBFF" fill-opacity="0.7"/>
</svg>
