<svg width="1920" height="1584" viewBox="0 0 1920 1584" fill="none" xmlns="http://www.w3.org/2000/svg">
<path d="M1920 149.661C1920 136.43 1914.76 123.738 1905.42 114.366L1806.6 15.2166C1787.58 -3.86824 1756.86 -4.44907 1737.13 13.9032L1535.47 201.5C1520.16 215.742 1497.61 218.953 1478.93 209.551L1325.15 132.129C1315.33 127.181 1304.14 125.613 1293.33 127.667L1056.56 172.656C1047.06 174.461 1037.24 173.472 1028.29 169.809L754.253 57.6599C738.241 51.1068 719.978 53.2974 705.97 63.4515L577.685 156.441C561.75 167.992 540.521 169.12 523.451 159.322L296.198 28.8887C281.158 20.2561 262.718 20.0334 247.474 28.3002L0 162.5V1446L244.719 1533.76C256.777 1538.09 270.036 1537.62 281.758 1532.46L499.896 1436.34C515.259 1429.57 532.993 1430.96 547.111 1440.05L757.597 1575.47C776.459 1587.61 801.093 1585.7 817.86 1570.8L1003.36 1406C1017.8 1393.17 1038.33 1389.81 1056.11 1397.35L1278.85 1491.89C1293.13 1497.95 1309.42 1497.04 1322.93 1489.42L1465.65 1408.98C1482.89 1399.26 1504.23 1400.63 1520.09 1412.45L1686.72 1536.69C1706.02 1551.07 1732.82 1549.67 1750.51 1533.35L1920 1377V149.661Z" fill="#FFA2C2"/>
</svg>
